<svg xmlns="http://www.w3.org/2000/svg" xmlns:xlink="http://www.w3.org/1999/xlink" version="1.1" x="0px" y="0px" viewBox="0 0 90 112.5" enable-background="new 0 0 90 90" xml:space="preserve"><path d="M81.171,6.304h-5.065c-0.139,0-0.25,0.112-0.25,0.25v1.984h-7.228l-0.797-2.074c-0.037-0.096-0.13-0.16-0.233-0.16H22.493  c-0.1,0-0.19,0.06-0.23,0.152l-0.88,2.082h-7.231V6.64c0-0.138-0.111-0.25-0.25-0.25H8.833c-0.139,0-0.25,0.112-0.25,0.25v4.038  v1.546v2.653c0,0.003-0.004,0.005-0.004,0.009c0,0.004,0.004,0.005,0.004,0.009v0.165v17.784v0.172v2.651  c0,0.003-0.004,0.006-0.004,0.009c0,0.004,0.004,0.007,0.004,0.011v0.165v17.785v0.172v2.569c0,0.004-0.004,0.006-0.004,0.011  c0,0.002,0.004,0.006,0.004,0.008v0.246V74.34v0.172v2.656c0,0.002-0.004,0.004-0.004,0.008s0.004,0.006,0.004,0.01v2.137v4.123  c0,0.14,0.111,0.25,0.25,0.25h5.068c0.139,0,0.25-0.11,0.25-0.25v-0.264h61.703v0.264c0,0.14,0.112,0.25,0.25,0.25h5.066  c0.139,0,0.25-0.11,0.25-0.25v-4.123v-2.145v-2.664V74.34V56.641v-0.256v-2.578v-0.172V35.851v-0.172v-2.664v-0.172V15.06v-0.172  v-2.664v-0.171v-1.375V6.554C81.421,6.416,81.309,6.304,81.171,6.304z M76.354,10.928h3.278v0.449c-0.003,0-0.005-0.003-0.008-0.003  h-3.271V10.928L76.354,10.928z M79.633,12.474v2.164h-2.679v-2.164H79.633z M14.151,9.038h7.396c0.102,0,0.191-0.06,0.23-0.152  l0.881-2.082h44.767l0.798,2.074c0.036,0.096,0.129,0.16,0.232,0.16h7.398v1.476H61.491V9.811h0.093c0.139,0,0.25-0.112,0.25-0.25  V7.929c0-0.138-0.111-0.25-0.25-0.25h-1.805c-0.139,0-0.25,0.112-0.25,0.25v1.632c0,0.138,0.111,0.25,0.25,0.25h0.095v0.703h-8.437  V9.811h0.096c0.138,0,0.25-0.112,0.25-0.25V7.929c0-0.138-0.112-0.25-0.25-0.25h-1.807c-0.138,0-0.25,0.112-0.25,0.25v1.632  c0,0.138,0.112,0.25,0.25,0.25h0.094v0.703h-9.55V9.811h0.007c0.139,0,0.251-0.112,0.251-0.25V7.929c0-0.138-0.112-0.25-0.251-0.25  h-1.803c-0.138,0-0.25,0.112-0.25,0.25v1.632c0,0.138,0.112,0.25,0.25,0.25h0.094v0.703h-8.436V9.811h0.094  c0.139,0,0.25-0.112,0.25-0.25V7.929c0-0.138-0.111-0.25-0.25-0.25h-1.804c-0.138,0-0.25,0.112-0.25,0.25v1.632  c0,0.138,0.112,0.25,0.25,0.25h0.093v0.703H14.151V9.038z M61.49,60v-3.883h14.105V60H61.49z M75.596,60.5v13.246H61.488L61.49,60.5  H75.596z M61.49,55.617v-8.434h14.105v8.434H61.49z M61.49,46.684l0.001-3.968h14.104v3.968H61.49z M61.491,42.215v-6.114h0.093  c0.139,0,0.25-0.112,0.25-0.25v-1.633c0-0.138-0.111-0.25-0.25-0.25h-0.093v-0.102h14.104v8.349H61.491z M61.491,33.367v-3.968  h14.104v3.968H61.491z M61.491,28.899v-0.273h1.036c0.139,0,0.25-0.112,0.25-0.25v-0.007h6.367c0.138,0,0.25-0.112,0.25-0.25V27.26  c0-0.132-0.104-0.241-0.233-0.25l-6.384-0.415v-0.281c0-0.138-0.111-0.25-0.25-0.25h-1.036V15.739h14.104v13.16H61.491z   M61.491,28.126v-1.562h0.786v1.562H61.491z M62.777,27.869v-0.772l6.117,0.397v0.375H62.777z M75.854,11.014v0.359H61.491v-0.359  H75.854z M61.334,80.174v1.133h-1.305v-1.133H61.334z M60.374,79.674V77.77h0.614v1.904H60.374z M60.037,77.27l-0.008-2.766h1.305  v2.766H60.037z M60.99,55.869v4.379c0,0.002-0.002,0.002-0.002,0.002c0,0.002,0.002,0.002,0.002,0.002l-0.002,13.744v0.008h-0.614  V36.101h0.617L60.99,55.865c0,0.002-0.002,0.002-0.002,0.002C60.988,55.869,60.99,55.869,60.99,55.869z M60.029,35.601v-1.133h1.305  v1.133H60.029z M60.374,33.968V15.396h0.617v18.573h-0.617V33.968z M60.038,14.896l-0.009-2.679h1.305v2.679H60.038z M60.374,11.717  V9.811h0.617v1.906H60.374z M60.029,9.311V8.179h1.305v1.132H60.029z M59.779,36.101h0.095v6.114h-8.437v-6.114h0.096  c0.138,0,0.25-0.112,0.25-0.25v-1.633c0-0.138-0.112-0.25-0.25-0.25h-0.096v-0.102h8.437v0.102h-0.095  c-0.139,0-0.25,0.112-0.25,0.25v1.633C59.529,35.989,59.643,36.101,59.779,36.101z M51.779,74.246h7.753  c0,0.004-0.003,0.004-0.003,0.008v3.266c0,0.002,0.003,0.004,0.003,0.006h-7.753c0-0.002,0.004-0.004,0.004-0.006v-3.266  C51.783,74.25,51.779,74.25,51.779,74.246z M59.874,78.025v0.358h-8.437v-0.358H59.874z M51.438,73.746V60.5h8.437v13.246H51.438z   M51.438,60v-3.883h8.437V60H51.438z M51.438,55.617v-8.434h8.437v8.434H51.438z M51.438,46.684v-3.968h8.437v3.968H51.438z   M51.438,33.367v-3.968h8.437v3.968H51.438z M51.438,28.899v-0.273h1.039c0.137,0,0.25-0.112,0.25-0.25v-0.007h6.365  c0.139,0,0.25-0.112,0.25-0.25V27.26c0-0.132-0.104-0.241-0.232-0.25l-6.383-0.415v-0.281c0-0.138-0.113-0.25-0.25-0.25h-1.039  V15.739h8.437v13.16H51.438z M51.438,28.126v-1.562h0.789v1.562H51.438z M52.727,27.869v-0.772l6.116,0.397v0.375H52.727z   M51.744,11.873h7.824c-0.016,0.031-0.039,0.057-0.039,0.094v3.179c0,0.037,0.023,0.062,0.039,0.093h-7.824  c0.015-0.031,0.039-0.057,0.039-0.093v-3.179C51.783,11.93,51.759,11.904,51.744,11.873z M51.438,11.373v-0.359h8.437v0.359H51.438z   M51.283,80.174v1.133h-1.307v-1.133H51.283z M50.32,79.674V77.77h0.617v1.904H50.32z M49.986,77.27l-0.01-2.766h1.307v2.766H49.986  z M50.32,74.004V36.101h0.617v37.903H50.32z M49.979,35.601v-1.133h1.306v1.133H49.979z M50.32,33.968V15.396h0.617v18.573H50.32  V33.968z M49.986,14.896l-0.01-2.679h1.307v2.679H49.986z M50.32,11.717V9.811h0.617v1.906H50.32z M49.979,9.311V8.179h1.306v1.132  H49.979z M40.457,29.399v3.968H40.27v-3.968H40.457z M40.27,28.899v-13.16h0.188v13.16H40.27z M40.457,33.867v0.184  c-0.046-0.049-0.107-0.082-0.181-0.082H40.27v-0.102H40.457z M40.276,36.101c0.073,0,0.135-0.033,0.181-0.082v6.196H40.27v-6.114  H40.276z M40.457,42.715v3.969H40.27v-3.969H40.457z M40.457,47.184v8.435H40.27v-8.435H40.457z M40.456,56.117V60H40.27v-3.883  H40.456z M40.457,60.5l-0.001,13.246H40.27V60.5H40.457z M44.487,78.025h1.031h4.303v0.358h-9.55v-0.358H44.487z M40.488,11.873  h3.749v65.652h-3.714c0-0.002,0.004-0.004,0.004-0.006v-3.267c0-0.004-0.004-0.004-0.004-0.008h0.183c0.138,0,0.25-0.111,0.25-0.25  l0.001-27.062c0-0.002,0-0.002,0-0.002v-4.468c0-0.001,0-0.001,0-0.001v-8.846c0-0.001,0-0.001,0-0.002v-4.468c0,0,0,0,0-0.001  V15.489c0-0.066-0.025-0.13-0.072-0.177c-0.047-0.047-0.111-0.073-0.178-0.073h-0.219c0.014-0.031,0.039-0.057,0.039-0.093v-3.179  C40.527,11.93,40.502,11.904,40.488,11.873z M49.518,15.239h-0.219c-0.138,0-0.25,0.112-0.25,0.25v13.66v4.468v8.849v4.468v8.935  v4.383v13.746c0,0.14,0.112,0.25,0.25,0.25h0.182c0,0.004-0.002,0.004-0.002,0.008v3.267c0,0.002,0.002,0.004,0.002,0.006h-3.713  V11.873h3.75c-0.016,0.031-0.039,0.057-0.039,0.094v3.179C49.479,15.182,49.502,15.208,49.518,15.239z M49.549,73.746V60.5h0.271  v13.246H49.549z M49.549,60v-3.883h0.271V60H49.549z M49.549,55.617v-8.434h0.271v8.434H49.549z M49.549,46.684v-3.968h0.271v3.968  H49.549z M49.549,42.215v-6.192c0.047,0.047,0.107,0.078,0.18,0.078h0.094v6.114H49.549z M49.729,33.968  c-0.071,0-0.133,0.031-0.18,0.078v-0.18h0.271v0.102H49.729z M49.549,33.367v-3.968h0.271v3.968H49.549z M49.549,28.899v-13.16  h0.271v13.16H49.549z M45.518,11.373c-0.138,0-0.25,0.112-0.25,0.25v65.902h-0.53V11.623c0-0.138-0.112-0.25-0.25-0.25H40.27v-0.359  h9.552v0.359H45.518z M40.026,80.174v1.133h-1.303v-1.133H40.026z M39.067,79.674V77.77h0.702v1.904H39.067z M38.724,77.27v-2.766  h1.296l0.007,2.766H38.724z M39.067,74.004V36.101h0.702v37.903H39.067z M38.724,35.601v-1.133h1.303v1.133H38.724z M39.067,33.968  V15.396h0.702v18.573h-0.702V33.968z M38.724,14.896v-2.679h1.296l0.007,2.679H38.724z M39.067,11.717V9.811h0.702v1.906H39.067z   M38.724,9.311V8.179h1.303v1.132H38.724z M37.614,26.064c-0.139,0-0.25,0.112-0.25,0.25v0.281l-6.468,0.415  c-0.132,0.008-0.233,0.118-0.233,0.25v0.859c0,0.138,0.111,0.25,0.25,0.25h6.451v0.007c0,0.138,0.111,0.25,0.25,0.25h0.953v0.273  h-8.436v-13.16h8.436v10.326L37.614,26.064L37.614,26.064z M38.567,26.564v1.562h-0.703v-1.562H38.567z M37.364,27.096v0.772h-6.201  v-0.375L37.364,27.096z M38.474,36.101h0.094v6.114h-8.436v-6.114h0.094c0.139,0,0.25-0.112,0.25-0.25v-1.633  c0-0.138-0.111-0.25-0.25-0.25h-0.094v-0.102h8.436v0.102h-0.094c-0.138,0-0.25,0.112-0.25,0.25v1.633  C38.224,35.989,38.336,36.101,38.474,36.101z M30.474,74.246h7.754c0,0.004-0.004,0.004-0.004,0.008v3.266  c0,0.002,0.004,0.004,0.004,0.006h-7.754c0-0.002,0.002-0.004,0.002-0.006v-3.266C30.476,74.25,30.474,74.25,30.474,74.246z   M38.567,78.025v0.358h-8.436v-0.358H38.567z M30.132,73.746V60.5h8.436v13.246H30.132z M30.132,60v-3.883h8.436V60H30.132z   M30.132,55.617v-8.434h8.436v8.434H30.132z M30.132,46.684v-3.968h8.436v3.968H30.132z M30.132,33.367v-3.968h8.436v3.968H30.132z   M30.438,11.873h7.825c-0.014,0.031-0.039,0.057-0.039,0.094v3.179c0,0.037,0.025,0.062,0.039,0.093h-7.825  c0.015-0.031,0.038-0.057,0.038-0.093v-3.179C30.476,11.93,30.451,11.904,30.438,11.873z M30.132,11.373v-0.359h8.436v0.359H30.132z   M29.976,80.174v1.133h-1.305v-1.133H29.976z M29.015,79.674V77.77h0.617v1.904H29.015z M28.671,77.27v-2.766h1.297l0.008,2.766  H28.671z M29.015,74.004V36.101h0.617v37.903H29.015z M28.672,35.601v-1.133h1.304v1.133H28.672z M29.015,33.968V15.396h0.617  v18.573h-0.617V33.968z M28.672,14.896v-2.679h1.297l0.007,2.679H28.672z M29.015,11.717V9.811h0.617v1.906H29.015z M28.672,9.311  V8.179h1.304v1.132H28.672z M14.151,11.014h14.363v0.359H14.151V11.014z M27.477,26.064c-0.138,0-0.25,0.112-0.25,0.25v0.281  l-6.382,0.415c-0.132,0.009-0.234,0.118-0.234,0.25v0.859c0,0.138,0.111,0.25,0.25,0.25h6.366v0.007c0,0.138,0.112,0.25,0.25,0.25  h1.038v0.273H14.409v-13.16h14.105v10.326L27.477,26.064L27.477,26.064z M28.515,26.564v1.562h-0.788v-1.562H28.515z M27.227,27.096  v0.772H21.11v-0.375L27.227,27.096z M28.422,36.101h0.093v6.114H14.409v-8.349h14.105v0.102h-0.093c-0.138,0-0.25,0.112-0.25,0.25  v1.633C28.172,35.989,28.284,36.101,28.422,36.101z M14.409,60v-3.883h14.105V60H14.409z M28.515,60.5v13.246H14.409V60.5H28.515z   M14.409,55.617v-8.434h14.105v8.434H14.409z M14.409,46.684v-3.968h14.105v3.968H14.409z M14.409,33.367v-3.968h14.105v3.968  H14.409z M9.083,6.89h4.568v3.624h-3.348c-0.046-0.051-0.107-0.086-0.182-0.086H9.083V6.89z M10.372,11.376v-0.362h3.279v0.359  h-3.272C10.376,11.373,10.374,11.376,10.372,11.376z M13.05,12.474v2.164h-2.678v-2.164H13.05z M10.372,33.266h2.678v2.164h-2.678  V33.266z M10.372,54.057h2.678v2.078h-2.678V54.057z M10.372,74.762h2.678v2.164h-2.678V74.762z M9.083,10.928h0.789v1.046H9.083  V10.928z M9.083,12.474h0.789v2.164H9.083V12.474z M9.083,15.138h0.789v17.456H9.083V15.138z M9.083,33.266h0.789v2.164H9.083  V33.266z M9.083,36.101h0.789v17.284H9.083V36.101z M9.083,54.057h0.789v2.078H9.083V54.057z M9.083,56.891h0.789V74.09H9.083  V56.891z M9.083,74.762h0.789v2.164H9.083V74.762z M9.083,77.598h0.789v1.475H9.083V77.598z M13.651,83.195H9.083v-3.623h1.039  h3.529V83.195z M13.651,78.635v0.082c0,0.004-0.003,0.006-0.003,0.01c0,0.002,0.003,0.004,0.003,0.008v0.338h-3.279v-1.049  c0.002,0,0.004,0.002,0.007,0.002h3.272V78.635z M13.901,77.525h-3.272v-0.101H13.3c0.139,0,0.25-0.112,0.25-0.25v-2.663  c0-0.138-0.111-0.25-0.25-0.25h-2.928V56.641v-0.006H13.3c0.139,0,0.25-0.113,0.25-0.25v-2.578c0-0.137-0.111-0.25-0.25-0.25h-2.928  V35.929H13.3c0.139,0,0.25-0.112,0.25-0.25v-2.664c0-0.138-0.111-0.25-0.25-0.25h-2.928V15.138H13.3c0.139,0,0.25-0.112,0.25-0.25  v-2.664c0-0.138-0.111-0.25-0.25-0.25h-2.671v-0.101h17.582c-0.015,0.031-0.039,0.057-0.039,0.094v3.179  c0,0.037,0.024,0.062,0.038,0.093H14.159c-0.139,0-0.25,0.112-0.25,0.25v58.507c0,0.139,0.111,0.25,0.25,0.25h14.014  c0,0.004-0.002,0.004-0.002,0.008v3.266c0,0.002,0.002,0.004,0.002,0.006H13.901L13.901,77.525z M28.515,78.025v0.358H14.151v-0.358  H28.515z M75.854,79.322v3.359H14.151v-3.359v-0.35h14.363v0.7H28.42c-0.139,0-0.25,0.111-0.25,0.25v1.634  c0,0.137,0.111,0.25,0.25,0.25h1.805c0.139,0,0.25-0.113,0.25-0.25v-1.634c0-0.139-0.111-0.25-0.25-0.25h-0.094v-0.7h8.436v0.7  h-0.094c-0.138,0-0.25,0.111-0.25,0.25v1.634c0,0.137,0.112,0.25,0.25,0.25h1.803c0.139,0,0.251-0.113,0.251-0.25v-1.634  c0-0.139-0.112-0.25-0.251-0.25H40.27v-0.7h9.552v0.7h-0.094c-0.139,0-0.25,0.111-0.25,0.25v1.634c0,0.137,0.111,0.25,0.25,0.25  h1.806c0.138,0,0.25-0.113,0.25-0.25v-1.634c0-0.139-0.112-0.25-0.25-0.25h-0.095v-0.7h8.436v0.7h-0.096  c-0.137,0-0.25,0.111-0.25,0.25v1.634c0,0.137,0.113,0.25,0.25,0.25h1.806c0.138,0,0.25-0.113,0.25-0.25v-1.634  c0-0.139-0.112-0.25-0.25-0.25H61.49v-0.7h14.365v0.35H75.854z M75.854,78.385H61.488v-0.359h14.365V78.385z M61.831,77.525  c0-0.002,0.003-0.004,0.003-0.006v-3.267c0-0.004-0.003-0.004-0.003-0.008h14.015c0.139,0,0.25-0.111,0.25-0.25V15.489  c0-0.138-0.111-0.25-0.25-0.25H61.795c0.016-0.031,0.039-0.057,0.039-0.093v-3.179c0-0.037-0.023-0.063-0.039-0.094h17.58v0.101  h-2.671c-0.138,0-0.25,0.112-0.25,0.25v2.664c0,0.138,0.112,0.25,0.25,0.25h2.929v17.628h-2.929c-0.138,0-0.25,0.112-0.25,0.25  v2.664c0,0.138,0.112,0.25,0.25,0.25h2.929v17.626h-2.929c-0.138,0-0.25,0.113-0.25,0.25v2.578c0,0.137,0.112,0.25,0.25,0.25h2.929  v0.006v17.621h-2.929c-0.138,0-0.25,0.113-0.25,0.25v2.664c0,0.137,0.112,0.25,0.25,0.25h2.671v0.1h-3.271H61.831L61.831,77.525z   M79.633,33.266v2.164h-2.679v-2.164H79.633z M79.633,54.057v2.078h-2.679v-2.078H79.633z M76.354,78.717v-0.082v-0.609h3.271  c0.003,0,0.005-0.002,0.008-0.002v1.049h-3.277v-0.338c0-0.004,0.004-0.006,0.004-0.008C76.357,78.723,76.354,78.721,76.354,78.717z   M76.954,76.926v-2.164h2.679v2.164H76.954z M80.921,83.195h-4.565v-3.623h3.527h1.038V83.195z M80.921,79.072h-0.788v-1.646h0.788  V79.072z M80.921,76.926h-0.788v-2.164h0.788V76.926z M80.921,74.262h-0.788V56.891h0.788V74.262z M80.921,56.135h-0.788v-2.078  h0.788V56.135z M80.921,53.385h-0.788V36.101h0.788V53.385z M80.921,35.429h-0.788v-2.164h0.788V35.429z M80.921,32.594h-0.788  V15.138h0.788V32.594z M80.921,14.638h-0.788v-2.164h0.788V14.638z M80.921,11.974h-0.788v-1.046h0.788V11.974z M80.921,10.428  h-1.038h-3.527V6.804h4.565V10.428z"/><path d="M10.387,82.518c0.005,0.086,0.054,0.158,0.122,0.199c0.021,0.035,0.051,0.064,0.086,0.086  c0.041,0.066,0.113,0.113,0.195,0.119c0.047,0.053,0.114,0.088,0.19,0.088h0.153l0.012,0.012c0.047,0.047,0.111,0.074,0.179,0.074  h0.085c0.066,0,0.131-0.025,0.178-0.072l0.167-0.014c0.076,0,0.144-0.035,0.19-0.088c0.082-0.006,0.154-0.053,0.195-0.119  c0.035-0.021,0.064-0.051,0.086-0.086c0.068-0.041,0.115-0.113,0.121-0.197l0.015-0.016c0.042-0.041,0.067-0.098,0.071-0.156  c0.053-0.047,0.087-0.113,0.087-0.188V81.9v-1.031v-0.172c0-0.066-0.026-0.131-0.073-0.178l-0.014-0.08  c0-0.09-0.048-0.17-0.12-0.213c-0.011-0.019-0.022-0.035-0.038-0.049l-0.172-0.175c-0.015-0.015-0.03-0.024-0.047-0.035  c-0.041-0.067-0.113-0.114-0.196-0.12l-0.013-0.015c-0.047-0.047-0.111-0.074-0.178-0.074h-0.602c-0.076,0-0.145,0.033-0.19,0.089  c-0.083,0.006-0.155,0.053-0.196,0.118c-0.035,0.021-0.064,0.052-0.086,0.087c-0.035,0.02-0.065,0.051-0.086,0.086  c-0.036,0.021-0.066,0.053-0.088,0.088c-0.072,0.043-0.119,0.123-0.119,0.213v0.067l-0.014,0.013  c-0.046,0.047-0.072,0.11-0.072,0.178v1.461c0,0.074,0.033,0.143,0.086,0.188C10.306,82.414,10.339,82.475,10.387,82.518z   M10.716,80.801l0.013-0.014c0.042-0.043,0.067-0.1,0.072-0.158c0.019-0.018,0.036-0.037,0.05-0.059  c0.036-0.023,0.066-0.053,0.088-0.09c0.034-0.021,0.063-0.049,0.084-0.082c0.023-0.017,0.044-0.033,0.062-0.053  c0.069-0.005,0.13-0.037,0.173-0.087h0.307l0.012,0.013c0.016,0.016,0.033,0.028,0.051,0.039c0.041,0.067,0.113,0.114,0.195,0.121  l0.027,0.024c0.004,0.067,0.037,0.129,0.085,0.172c0.005,0.062,0.03,0.117,0.073,0.16l0.013,0.08V81.9v0.068  c-0.053,0.045-0.087,0.112-0.087,0.188v0.067l-0.014,0.017c-0.014,0.012-0.024,0.026-0.035,0.043  c-0.035,0.021-0.066,0.053-0.088,0.088c-0.021,0.015-0.041,0.03-0.059,0.051c-0.068,0.005-0.131,0.035-0.173,0.086h-0.067  c-0.047,0-0.091,0.013-0.129,0.035c-0.039-0.022-0.083-0.035-0.129-0.035h-0.07c-0.042-0.051-0.104-0.081-0.173-0.086  c-0.018-0.021-0.037-0.036-0.059-0.051c-0.015-0.022-0.032-0.045-0.053-0.063c-0.005-0.065-0.037-0.127-0.085-0.17  c-0.005-0.068-0.036-0.129-0.085-0.172L10.716,80.801L10.716,80.801z"/><path d="M79.583,80.225c-0.011-0.016-0.022-0.031-0.036-0.045l-0.178-0.178c-0.014-0.014-0.029-0.025-0.045-0.035  c-0.041-0.066-0.111-0.113-0.193-0.119l-0.013-0.014c-0.048-0.047-0.111-0.074-0.179-0.074h-0.604c-0.076,0-0.145,0.033-0.189,0.088  c-0.082,0.006-0.153,0.051-0.194,0.119c-0.035,0.02-0.065,0.049-0.089,0.086c-0.035,0.021-0.065,0.051-0.088,0.088  c-0.033,0.021-0.063,0.051-0.084,0.084c-0.071,0.045-0.121,0.125-0.121,0.215v0.068l-0.012,0.014  c-0.047,0.047-0.072,0.109-0.072,0.176v1.462c0,0.073,0.033,0.144,0.086,0.188c0.004,0.067,0.035,0.131,0.086,0.174  c0.005,0.082,0.052,0.153,0.119,0.194c0.021,0.035,0.052,0.065,0.086,0.089c0.041,0.065,0.113,0.112,0.197,0.118  c0.045,0.054,0.113,0.089,0.189,0.089h0.152l0.013,0.012c0.047,0.047,0.11,0.074,0.179,0.074h0.086c0.067,0,0.133-0.027,0.18-0.074  l0.164-0.012c0.076,0,0.146-0.035,0.19-0.089c0.081-0.006,0.152-0.053,0.193-0.116c0.036-0.021,0.067-0.054,0.09-0.091  c0.067-0.041,0.112-0.11,0.119-0.194l0.015-0.015c0.042-0.043,0.066-0.1,0.071-0.159c0.053-0.045,0.086-0.113,0.086-0.188v-1.548  c0-0.075-0.033-0.143-0.086-0.188C79.697,80.338,79.65,80.266,79.583,80.225z M79.289,81.971c-0.053,0.045-0.085,0.111-0.085,0.188  v0.067l-0.015,0.014c-0.014,0.014-0.025,0.031-0.035,0.047c-0.034,0.021-0.063,0.049-0.086,0.084  c-0.022,0.014-0.043,0.031-0.063,0.053c-0.068,0.004-0.13,0.037-0.172,0.086h-0.068c-0.047,0-0.091,0.012-0.129,0.035  c-0.037-0.023-0.082-0.035-0.128-0.035h-0.069c-0.043-0.051-0.104-0.082-0.174-0.088c-0.018-0.02-0.037-0.035-0.06-0.049  c-0.015-0.023-0.03-0.043-0.052-0.061c-0.004-0.068-0.035-0.129-0.086-0.172c-0.004-0.068-0.035-0.129-0.084-0.17v-1.173  l0.014-0.012c0.042-0.043,0.066-0.101,0.07-0.158c0.021-0.019,0.039-0.039,0.053-0.062c0.035-0.021,0.064-0.053,0.086-0.088  c0.033-0.02,0.063-0.049,0.083-0.082c0.024-0.014,0.046-0.03,0.063-0.053c0.068-0.006,0.129-0.037,0.172-0.086h0.308l0.013,0.012  c0.014,0.015,0.03,0.027,0.049,0.039c0.041,0.068,0.113,0.115,0.198,0.121l0.025,0.025c0.004,0.068,0.036,0.129,0.086,0.172  c0.005,0.068,0.036,0.127,0.084,0.17L79.289,81.971L79.289,81.971z"/><path d="M77.57,9.561c0,0.091,0.05,0.171,0.121,0.214c0.022,0.036,0.054,0.066,0.09,0.088c0.021,0.033,0.048,0.061,0.08,0.081  c0.021,0.038,0.054,0.069,0.091,0.091c0.041,0.067,0.112,0.113,0.196,0.119c0.045,0.053,0.113,0.086,0.188,0.086h0.604  c0.074,0,0.143-0.033,0.188-0.086c0.084-0.006,0.155-0.053,0.195-0.121c0.018-0.01,0.033-0.022,0.047-0.036l0.176-0.175  c0.016-0.014,0.025-0.03,0.037-0.047c0.068-0.041,0.115-0.114,0.12-0.198c0.053-0.046,0.086-0.113,0.086-0.188V7.843  c0-0.075-0.033-0.143-0.086-0.188c-0.005-0.06-0.029-0.117-0.072-0.16l-0.014-0.013c-0.007-0.083-0.052-0.155-0.119-0.196  c-0.022-0.036-0.054-0.066-0.089-0.088c-0.041-0.066-0.112-0.113-0.194-0.119l-0.013-0.012c-0.047-0.047-0.111-0.074-0.178-0.074  h-0.07c-0.046-0.053-0.113-0.086-0.188-0.086H78.51c-0.074,0-0.143,0.033-0.188,0.086h-0.07c-0.074,0-0.145,0.034-0.189,0.086  c-0.084,0.005-0.158,0.054-0.199,0.124c-0.031,0.02-0.059,0.048-0.079,0.081c-0.07,0.041-0.118,0.114-0.124,0.199  c-0.051,0.042-0.082,0.104-0.086,0.172C77.52,7.7,77.486,7.768,77.486,7.843v1.461c0,0.066,0.025,0.129,0.072,0.176L77.57,9.561z   M78.07,7.86c0.049-0.042,0.08-0.102,0.086-0.17c0.021-0.018,0.039-0.04,0.055-0.064c0.021-0.013,0.04-0.03,0.057-0.048  c0.068-0.004,0.131-0.037,0.172-0.085h0.07c0.047,0,0.092-0.013,0.129-0.035c0.036,0.022,0.08,0.035,0.127,0.035h0.154l0.012,0.012  c0.016,0.015,0.031,0.028,0.049,0.039c0.022,0.037,0.054,0.067,0.09,0.088c0.021,0.034,0.05,0.062,0.084,0.083  c0.011,0.018,0.023,0.035,0.037,0.049l0.014,0.081c0,0.075,0.033,0.142,0.085,0.188v1.17c-0.048,0.042-0.08,0.103-0.084,0.171  c-0.05,0.042-0.082,0.103-0.086,0.172l-0.026,0.025c-0.068,0.004-0.13,0.037-0.173,0.086c-0.067,0.005-0.127,0.037-0.169,0.084  h-0.227c-0.041-0.048-0.103-0.08-0.17-0.085c-0.019-0.021-0.039-0.039-0.063-0.053c-0.021-0.033-0.047-0.061-0.08-0.081  c-0.021-0.038-0.053-0.069-0.09-0.091c-0.015-0.022-0.031-0.042-0.052-0.059c-0.004-0.06-0.028-0.116-0.07-0.159l-0.014-1.182  C78.034,7.988,78.066,7.928,78.07,7.86z"/><path d="M10.387,9.835c0.005,0.084,0.054,0.158,0.122,0.199c0.021,0.035,0.051,0.064,0.086,0.085  c0.041,0.068,0.113,0.115,0.197,0.121c0.045,0.053,0.113,0.086,0.188,0.086h0.07c0.046,0.053,0.113,0.086,0.188,0.086h0.258  c0.074,0,0.143-0.033,0.188-0.086h0.069c0.075,0,0.144-0.034,0.188-0.086c0.084-0.006,0.156-0.053,0.197-0.121  c0.035-0.021,0.064-0.05,0.086-0.085c0.068-0.041,0.115-0.113,0.121-0.197l0.014-0.014c0.043-0.042,0.068-0.099,0.072-0.158  c0.053-0.046,0.087-0.114,0.087-0.189v-1.46c0-0.066-0.026-0.13-0.073-0.177l-0.014-0.082c0-0.091-0.048-0.17-0.12-0.214  c-0.011-0.018-0.023-0.035-0.038-0.049l-0.172-0.171c-0.014-0.015-0.03-0.027-0.048-0.038c-0.041-0.068-0.113-0.115-0.197-0.121  c-0.046-0.053-0.113-0.086-0.188-0.086h-0.602c-0.076,0-0.144,0.034-0.189,0.086c-0.084,0.006-0.156,0.052-0.197,0.12  c-0.035,0.021-0.065,0.051-0.087,0.087c-0.034,0.021-0.063,0.05-0.085,0.084c-0.035,0.021-0.066,0.052-0.088,0.088  c-0.072,0.044-0.119,0.123-0.119,0.213v0.069l-0.014,0.013c-0.047,0.047-0.072,0.11-0.072,0.176v1.46  c0,0.075,0.033,0.143,0.086,0.189C10.307,9.732,10.339,9.793,10.387,9.835z M10.716,8.118l0.014-0.013  c0.042-0.043,0.067-0.1,0.071-0.159c0.019-0.017,0.036-0.037,0.05-0.059c0.035-0.021,0.066-0.051,0.088-0.087  c0.034-0.021,0.063-0.05,0.084-0.085c0.023-0.014,0.044-0.031,0.061-0.051c0.069-0.004,0.131-0.037,0.172-0.085h0.225  c0.043,0.049,0.104,0.081,0.172,0.085c0.042,0.048,0.102,0.08,0.17,0.085l0.027,0.027c0.005,0.068,0.037,0.128,0.085,0.17  c0.004,0.061,0.03,0.117,0.073,0.16l0.013,1.181c-0.053,0.046-0.087,0.113-0.087,0.189v0.068l-0.012,0.013  c-0.015,0.014-0.027,0.03-0.037,0.047c-0.036,0.021-0.066,0.051-0.088,0.087c-0.021,0.013-0.042,0.03-0.059,0.05  c-0.068,0.004-0.13,0.037-0.172,0.085h-0.068c-0.047,0-0.092,0.013-0.129,0.036c-0.037-0.022-0.082-0.036-0.129-0.036h-0.07  c-0.043-0.049-0.104-0.081-0.172-0.085c-0.017-0.02-0.037-0.037-0.059-0.05c-0.015-0.023-0.032-0.044-0.053-0.062  c-0.005-0.068-0.037-0.128-0.085-0.17c-0.005-0.068-0.036-0.129-0.085-0.171V8.118z"/></svg>