<svg xmlns="http://www.w3.org/2000/svg" xmlns:xlink="http://www.w3.org/1999/xlink" version="1.1" x="0px" y="0px" viewBox="0 0 120 112.5" enable-background="new 0 0 90 90" xml:space="preserve"><g><polygon points="21.947,57.038 24.394,57.687 24.394,29.015 21.947,29.376  "/><polygon points="19.465,56.381 21.447,56.906 21.447,29.45 19.465,29.742  "/><polygon points="14.979,55.192 16.543,55.607 16.543,30.173 14.979,30.404  "/><polygon points="80.26,28.581 71.105,27.314 71.105,29.027 80.26,30.073  "/><polygon points="24.894,57.818 27.325,58.463 27.325,28.583 24.894,28.941  "/><path d="M8.757,55.209L53.99,67.357V21.806L8.757,29.726V55.209z M9.111,30.765l0.213-0.032l7.219-1.065v-0.041h0.273l2.148-0.317   l0.5-0.074l1.982-0.292l0.5-0.074l2.446-0.361l0.5-0.074l2.432-0.359l0.5-0.074l3.298-0.487l0.5-0.074l3.028-0.447l0.5-0.074   l2.641-0.39l0.5-0.074l2.939-0.434l0.5-0.074l3.148-0.464l0.5-0.074l2.983-0.44l0.5-0.074l2.287-0.337v40.73l-0.314-0.084   l-12.73-3.372l-0.314-0.083L9.111,54.155V30.765z"/><polygon points="27.825,58.596 31.123,59.469 31.123,28.022 27.825,28.509  "/><polygon points="37.792,27.038 35.151,27.428 35.151,60.536 37.792,61.235  "/><polygon points="31.623,59.602 34.651,60.403 34.651,27.502 31.623,27.948  "/><polygon points="17.043,55.739 18.965,56.248 18.965,29.816 17.043,30.1  "/><polygon points="48.363,25.479 45.38,25.919 45.38,63.245 48.363,64.036  "/><polygon points="44.88,25.993 41.731,26.457 41.731,62.279 44.88,63.113  "/><polygon points="50.65,25.141 48.863,25.405 48.863,64.168 50.65,64.642  "/><polygon points="9.611,53.771 10.518,54.011 10.518,31.063 9.611,31.196  "/><polygon points="41.231,26.531 38.292,26.964 38.292,61.368 41.231,62.146  "/><polygon points="11.018,54.144 12.203,54.457 12.203,30.814 11.018,30.989  "/><polygon points="12.703,54.59 14.479,55.061 14.479,30.478 12.703,30.74  "/><path d="M54.49,67.505l26.752-6.403V26.662L54.49,21.808V67.505z M56.396,24.773l24.363,3.372v21.608v0.503v10.04l-11,2.565   l-0.5,0.117l-0.742,0.173l-0.5,0.116l-11.621,2.711V24.773z"/><polygon points="68.018,38.012 56.896,37.896 56.896,39.784 68.018,39.784  "/><polygon points="68.018,49.581 56.896,50.23 56.896,52.086 68.018,50.999  "/><polygon points="68.018,40.284 56.896,40.284 56.896,49.729 68.018,49.079  "/><polygon points="68.018,29.177 56.896,27.906 56.896,37.396 68.018,37.512  "/><polygon points="68.018,51.502 56.896,52.588 56.896,61.774 68.018,59.648  "/><polygon points="80.26,30.577 71.105,29.53 71.105,37.544 80.26,37.64  "/><polygon points="68.018,60.157 56.896,62.282 56.896,65.349 68.018,62.755  "/><polygon points="68.018,26.887 56.896,25.348 56.896,27.403 68.018,28.674  "/><polygon points="80.26,40.284 71.105,40.284 71.105,48.898 80.26,48.364  "/><polygon points="80.26,48.866 71.105,49.4 71.105,50.697 80.26,49.803  "/><polygon points="80.26,38.14 71.105,38.044 71.105,39.784 80.26,39.784  "/><polygon points="69.26,59.92 69.26,59.411 69.26,51.38 69.26,50.877 69.26,49.509 69.26,49.007 69.26,40.284 69.26,39.784    69.26,38.025 69.26,37.525 69.26,29.319 69.26,28.816 69.26,27.059 68.518,26.956 68.518,28.731 68.518,29.234 68.518,37.517    68.518,38.017 68.518,39.784 68.518,40.284 68.518,49.05 68.518,49.552 68.518,50.95 68.518,51.453 68.518,59.554 68.518,60.062    68.518,62.639 69.26,62.466  "/><polygon points="70.605,59.662 70.605,59.154 70.605,51.249 70.605,50.746 70.605,49.43 70.605,48.928 70.605,40.284    70.605,39.784 70.605,38.039 70.605,37.539 70.605,29.473 70.605,28.97 70.605,27.245 69.76,27.128 69.76,28.873 69.76,29.376    69.76,37.53 69.76,38.03 69.76,39.784 69.76,40.284 69.76,48.978 69.76,49.479 69.76,50.828 69.76,51.331 69.76,59.316    69.76,59.824 69.76,62.349 70.605,62.151  "/><polygon points="80.26,57.817 71.105,59.567 71.105,62.035 80.26,59.9  "/><polygon points="80.26,50.306 71.105,51.2 71.105,59.059 80.26,57.31  "/></g></svg>